<?xml version="1.0"?>
<svg version="1.1" id="圖層_1" xmlns="http://www.w3.org/2000/svg" x="0" y="0" viewBox="0 0 100 100" xml:space="preserve"><circle cx="50" cy="50" r="40" fill="#333"/><path d="M63.9 29L50 42.9 36.1 29c-2-2-5.2-2-7.1 0s-2 5.2 0 7.1L42.9 50 29 63.9c-2 2-2 5.2 0 7.1 2 2 5.2 2 7.1 0L50 57.1 63.9 71c2 2 5.2 2 7.1 0 2-2 2-5.2 0-7.1L57.1 50 71 36.1c2-2 2-5.2 0-7.1-1.9-2-5.1-2-7.1 0z" fill="#e15b64"/><metadata xmlns:d="https://loading.io/stock/"><d:name>close</d:name><d:tags>close,reject,off,disable,remove,delete,cancel,drop,collapse</d:tags><d:license>by</d:license><d:slug>d2t9zh</d:slug></metadata></svg>